{
    "asset" : {
        "generator" : "Khronos glTF Blender I/O v1.2.75",
        "version" : "2.0"
    },
    "scene" : 0,
    "scenes" : [
        {
            "name" : "Scene",
            "nodes" : [
                0,
                1,
                2,
                3
            ]
        },
        {
            "name" : "Scene.001"
        },
        {
            "name" : "Scene.002"
        }
    ],
    "nodes" : [
        {
            "mesh" : 0,
            "name" : "Cube.009",
            "translation" : [
                4.5667266845703125,
                0,
                0
            ]
        },
        {
            "mesh" : 1,
            "name" : "Cube.010",
            "translation" : [
                4.5667266845703125,
                0,
                -67.25749969482422
            ]
        },
        {
            "mesh" : 2,
            "name" : "Cube.041",
            "translation" : [
                -1.580596923828125,
                0,
                0
            ]
        },
        {
            "mesh" : 3,
            "name" : "Cylinder.017",
            "scale" : [
                1,
                1,
                0.5
            ],
            "translation" : [
                -1.580596923828125,
                0,
                0
            ]
        }
    ],
    "materials" : [
        {
            "doubleSided" : true,
            "emissiveFactor" : [
                0,
                0,
                0
            ],
            "name" : "Material.004",
            "pbrMetallicRoughness" : {
                "baseColorFactor" : [
                    0.8462826013565063,
                    0.16579480469226837,
                    0.013447088189423084,
                    1
                ],
                "metallicFactor" : 0,
                "roughnessFactor" : 0.5
            }
        },
        {
            "doubleSided" : true,
            "emissiveFactor" : [
                0,
                0,
                0
            ],
            "name" : "Material.005",
            "pbrMetallicRoughness" : {
                "baseColorFactor" : [
                    0.4490993022918701,
                    0.4490993022918701,
                    0.4490993022918701,
                    1
                ],
                "metallicFactor" : 0.5365853905677795,
                "roughnessFactor" : 0.2682926654815674
            }
        }
    ],
    "meshes" : [
        {
            "name" : "Cube.037",
            "primitives" : [
                {
                    "attributes" : {
                        "POSITION" : 0,
                        "NORMAL" : 1,
                        "TEXCOORD_0" : 2
                    },
                    "indices" : 3,
                    "material" : 0
                }
            ]
        },
        {
            "name" : "Cube.038",
            "primitives" : [
                {
                    "attributes" : {
                        "POSITION" : 4,
                        "NORMAL" : 5,
                        "TEXCOORD_0" : 6
                    },
                    "indices" : 7,
                    "material" : 0
                }
            ]
        },
        {
            "name" : "Cube.080",
            "primitives" : [
                {
                    "attributes" : {
                        "POSITION" : 8,
                        "NORMAL" : 9,
                        "TEXCOORD_0" : 10
                    },
                    "indices" : 11,
                    "material" : 0
                }
            ]
        },
        {
            "name" : "Cylinder.053",
            "primitives" : [
                {
                    "attributes" : {
                        "POSITION" : 12,
                        "NORMAL" : 13,
                        "TEXCOORD_0" : 14
                    },
                    "indices" : 15,
                    "material" : 1
                }
            ]
        }
    ],
    "accessors" : [
        {
            "bufferView" : 0,
            "componentType" : 5126,
            "count" : 440,
            "max" : [
                61.41548156738281,
                14.997653007507324,
                42.98723602294922
            ],
            "min" : [
                58.137332916259766,
                -11.285672187805176,
                2.52932071685791
            ],
            "type" : "VEC3"
        },
        {
            "bufferView" : 1,
            "componentType" : 5126,
            "count" : 440,
            "type" : "VEC3"
        },
        {
            "bufferView" : 2,
            "componentType" : 5126,
            "count" : 440,
            "type" : "VEC2"
        },
        {
            "bufferView" : 3,
            "componentType" : 5123,
            "count" : 852,
            "type" : "SCALAR"
        },
        {
            "bufferView" : 4,
            "componentType" : 5126,
            "count" : 440,
            "max" : [
                61.41548156738281,
                14.997653007507324,
                42.98723602294922
            ],
            "min" : [
                58.137332916259766,
                -11.285672187805176,
                2.52932071685791
            ],
            "type" : "VEC3"
        },
        {
            "bufferView" : 5,
            "componentType" : 5126,
            "count" : 440,
            "type" : "VEC3"
        },
        {
            "bufferView" : 6,
            "componentType" : 5126,
            "count" : 440,
            "type" : "VEC2"
        },
        {
            "bufferView" : 7,
            "componentType" : 5123,
            "count" : 852,
            "type" : "SCALAR"
        },
        {
            "bufferView" : 8,
            "componentType" : 5126,
            "count" : 3701,
            "max" : [
                58.13733673095703,
                16.811567306518555,
                44.361331939697266
            ],
            "min" : [
                -55.42182922363281,
                -30.668298721313477,
                -68.15373992919922
            ],
            "type" : "VEC3"
        },
        {
            "bufferView" : 9,
            "componentType" : 5126,
            "count" : 3701,
            "type" : "VEC3"
        },
        {
            "bufferView" : 10,
            "componentType" : 5126,
            "count" : 3701,
            "type" : "VEC2"
        },
        {
            "bufferView" : 11,
            "componentType" : 5123,
            "count" : 7224,
            "type" : "SCALAR"
        },
        {
            "bufferView" : 12,
            "componentType" : 5126,
            "count" : 1164,
            "max" : [
                42.513954162597656,
                7.5128068923950195,
                200.00001525878906
            ],
            "min" : [
                -42.513954162597656,
                -7.512812614440918,
                -200.00001525878906
            ],
            "type" : "VEC3"
        },
        {
            "bufferView" : 13,
            "componentType" : 5126,
            "count" : 1164,
            "type" : "VEC3"
        },
        {
            "bufferView" : 14,
            "componentType" : 5126,
            "count" : 1164,
            "type" : "VEC2"
        },
        {
            "bufferView" : 15,
            "componentType" : 5123,
            "count" : 2232,
            "type" : "SCALAR"
        }
    ],
    "bufferViews" : [
        {
            "buffer" : 0,
            "byteLength" : 5280,
            "byteOffset" : 0
        },
        {
            "buffer" : 0,
            "byteLength" : 5280,
            "byteOffset" : 5280
        },
        {
            "buffer" : 0,
            "byteLength" : 3520,
            "byteOffset" : 10560
        },
        {
            "buffer" : 0,
            "byteLength" : 1704,
            "byteOffset" : 14080
        },
        {
            "buffer" : 0,
            "byteLength" : 5280,
            "byteOffset" : 15784
        },
        {
            "buffer" : 0,
            "byteLength" : 5280,
            "byteOffset" : 21064
        },
        {
            "buffer" : 0,
            "byteLength" : 3520,
            "byteOffset" : 26344
        },
        {
            "buffer" : 0,
            "byteLength" : 1704,
            "byteOffset" : 29864
        },
        {
            "buffer" : 0,
            "byteLength" : 44412,
            "byteOffset" : 31568
        },
        {
            "buffer" : 0,
            "byteLength" : 44412,
            "byteOffset" : 75980
        },
        {
            "buffer" : 0,
            "byteLength" : 29608,
            "byteOffset" : 120392
        },
        {
            "buffer" : 0,
            "byteLength" : 14448,
            "byteOffset" : 150000
        },
        {
            "buffer" : 0,
            "byteLength" : 13968,
            "byteOffset" : 164448
        },
        {
            "buffer" : 0,
            "byteLength" : 13968,
            "byteOffset" : 178416
        },
        {
            "buffer" : 0,
            "byteLength" : 9312,
            "byteOffset" : 192384
        },
        {
            "buffer" : 0,
            "byteLength" : 4464,
            "byteOffset" : 201696
        }
    ],
    "buffers" : [
        {
            "byteLength" : 206160,
            "uri" : "data:application/octet-stream;base64,"
        }
    ]
}
