{
    "asset" : {
        "generator" : "Khronos glTF Blender I/O v1.1.46",
        "version" : "2.0"
    },
    "scene" : 0,
    "scenes" : [
        {
            "name" : "Scene",
            "nodes" : [
                0
            ]
        }
    ],
    "nodes" : [
        {
            "mesh" : 0,
            "name" : "Cube"
        }
    ],
    "materials" : [
        {
            "doubleSided" : true,
            "emissiveFactor" : [
                0,
                0,
                0
            ],
            "name" : "Material",
            "pbrMetallicRoughness" : {
                "baseColorFactor" : [
                    0.37002474069595337,
                    0.5028012990951538,
                    0.8000000715255737,
                    1
                ],
                "metallicFactor" : 0,
                "roughnessFactor" : 0.4000000059604645
            }
        },
        {
            "doubleSided" : true,
            "emissiveFactor" : [
                0,
                0,
                0
            ],
            "name" : "Material.001",
            "pbrMetallicRoughness" : {
                "baseColorFactor" : [
                    0.1078978031873703,
                    0.1078978031873703,
                    0.1078978031873703,
                    1
                ],
                "metallicFactor" : 0,
                "roughnessFactor" : 0.5
            }
        },
        {
            "doubleSided" : true,
            "emissiveFactor" : [
                4.953845977783203,
                4.953845977783203,
                4.953845977783203
            ],
            "name" : "Material.002",
            "pbrMetallicRoughness" : {
                "baseColorFactor" : [
                    0.8000000715255737,
                    0.31790995597839355,
                    0.05604354664683342,
                    1
                ],
                "metallicFactor" : 0,
                "roughnessFactor" : 0.5
            }
        }
    ],
    "meshes" : [
        {
            "name" : "Cube",
            "primitives" : [
                {
                    "attributes" : {
                        "POSITION" : 0,
                        "NORMAL" : 1,
                        "TEXCOORD_0" : 2
                    },
                    "indices" : 3,
                    "material" : 0
                },
                {
                    "attributes" : {
                        "POSITION" : 4,
                        "NORMAL" : 5,
                        "TEXCOORD_0" : 6
                    },
                    "indices" : 7,
                    "material" : 1
                },
                {
                    "attributes" : {
                        "POSITION" : 8,
                        "NORMAL" : 9,
                        "TEXCOORD_0" : 10
                    },
                    "indices" : 11,
                    "material" : 2
                }
            ]
        }
    ],
    "accessors" : [
        {
            "bufferView" : 0,
            "componentType" : 5126,
            "count" : 533,
            "max" : [
                1,
                3.4692373275756836,
                1.1387044191360474
            ],
            "min" : [
                -1,
                -0.3269161283969879,
                -1
            ],
            "type" : "VEC3"
        },
        {
            "bufferView" : 1,
            "componentType" : 5126,
            "count" : 533,
            "type" : "VEC3"
        },
        {
            "bufferView" : 2,
            "componentType" : 5126,
            "count" : 533,
            "type" : "VEC2"
        },
        {
            "bufferView" : 3,
            "componentType" : 5123,
            "count" : 792,
            "type" : "SCALAR"
        },
        {
            "bufferView" : 4,
            "componentType" : 5126,
            "count" : 464,
            "max" : [
                1.8166121244430542,
                2.539738655090332,
                0.2637501060962677
            ],
            "min" : [
                -1.8166121244430542,
                -1.861354947090149,
                -0.2637501060962677
            ],
            "type" : "VEC3"
        },
        {
            "bufferView" : 5,
            "componentType" : 5126,
            "count" : 464,
            "type" : "VEC3"
        },
        {
            "bufferView" : 6,
            "componentType" : 5126,
            "count" : 464,
            "type" : "VEC2"
        },
        {
            "bufferView" : 7,
            "componentType" : 5123,
            "count" : 648,
            "type" : "SCALAR"
        },
        {
            "bufferView" : 8,
            "componentType" : 5126,
            "count" : 192,
            "max" : [
                0.9210084676742554,
                2.0296435356140137,
                1.3207651376724243
            ],
            "min" : [
                -0.9210084676742554,
                1.5497595071792603,
                1.0316694974899292
            ],
            "type" : "VEC3"
        },
        {
            "bufferView" : 9,
            "componentType" : 5126,
            "count" : 192,
            "type" : "VEC3"
        },
        {
            "bufferView" : 10,
            "componentType" : 5126,
            "count" : 192,
            "type" : "VEC2"
        },
        {
            "bufferView" : 11,
            "componentType" : 5123,
            "count" : 264,
            "type" : "SCALAR"
        }
    ],
    "bufferViews" : [
        {
            "buffer" : 0,
            "byteLength" : 6396,
            "byteOffset" : 0
        },
        {
            "buffer" : 0,
            "byteLength" : 6396,
            "byteOffset" : 6396
        },
        {
            "buffer" : 0,
            "byteLength" : 4264,
            "byteOffset" : 12792
        },
        {
            "buffer" : 0,
            "byteLength" : 1584,
            "byteOffset" : 17056
        },
        {
            "buffer" : 0,
            "byteLength" : 5568,
            "byteOffset" : 18640
        },
        {
            "buffer" : 0,
            "byteLength" : 5568,
            "byteOffset" : 24208
        },
        {
            "buffer" : 0,
            "byteLength" : 3712,
            "byteOffset" : 29776
        },
        {
            "buffer" : 0,
            "byteLength" : 1296,
            "byteOffset" : 33488
        },
        {
            "buffer" : 0,
            "byteLength" : 2304,
            "byteOffset" : 34784
        },
        {
            "buffer" : 0,
            "byteLength" : 2304,
            "byteOffset" : 37088
        },
        {
            "buffer" : 0,
            "byteLength" : 1536,
            "byteOffset" : 39392
        },
        {
            "buffer" : 0,
            "byteLength" : 528,
            "byteOffset" : 40928
        }
    ],
    "buffers" : [
        {
            "byteLength" : 41456,
            "uri" : "data:application/octet-stream;base64,"
        }
    ]
}
